<svg id="visual" viewBox="0 0 960 150" width="960" height="150" xmlns="http://www.w3.org/2000/svg" xmlns:xlink="http://www.w3.org/1999/xlink" version="1.1">
<path d="M0 27L17.8 24.3C35.7 21.7 71.3 16.3 106.8 19.7C142.3 23 177.7 35 213.2 45.8C248.7 56.7 284.3 66.3 320 67.7C355.7 69 391.3 62 426.8 55.3C462.3 48.7 497.7 42.3 533.2 34.2C568.7 26 604.3 16 640 16.2C675.7 16.3 711.3 26.7 746.8 32.2C782.3 37.7 817.7 38.3 853.2 34.2C888.7 30 924.3 21 942.2 16.5L960 12L960 151L942.2 151C924.3 151 888.7 151 853.2 151C817.7 151 782.3 151 746.8 151C711.3 151 675.7 151 640 151C604.3 151 568.7 151 533.2 151C497.7 151 462.3 151 426.8 151C391.3 151 355.7 151 320 151C284.3 151 248.7 151 213.2 151C177.7 151 142.3 151 106.8 151C71.3 151 35.7 151 17.8 151L0 151Z" fill="#01937e"></path>
<path d="M0 42L17.8 45.8C35.7 49.7 71.3 57.3 106.8 64.7C142.3 72 177.7 79 213.2 80.5C248.7 82 284.3 78 320 74.8C355.7 71.7 391.3 69.3 426.8 70.5C462.3 71.7 497.7 76.3 533.2 74.2C568.7 72 604.3 63 640 63C675.7 63 711.3 72 746.8 72.7C782.3 73.3 817.7 65.7 853.2 59C888.7 52.3 924.3 46.7 942.2 43.8L960 41L960 151L942.2 151C924.3 151 888.7 151 853.2 151C817.7 151 782.3 151 746.8 151C711.3 151 675.7 151 640 151C604.3 151 568.7 151 533.2 151C497.7 151 462.3 151 426.8 151C391.3 151 355.7 151 320 151C284.3 151 248.7 151 213.2 151C177.7 151 142.3 151 106.8 151C71.3 151 35.7 151 17.8 151L0 151Z" fill="#19978f"></path>
<path d="M0 46L17.8 51.3C35.7 56.7 71.3 67.3 106.8 70.7C142.3 74 177.7 70 213.2 69.8C248.7 69.7 284.3 73.3 320 71.5C355.7 69.7 391.3 62.3 426.8 66.7C462.3 71 497.7 87 533.2 90.8C568.7 94.7 604.3 86.3 640 84.5C675.7 82.7 711.3 87.3 746.8 86.5C782.3 85.7 817.7 79.3 853.2 73.7C888.7 68 924.3 63 942.2 60.5L960 58L960 151L942.2 151C924.3 151 888.7 151 853.2 151C817.7 151 782.3 151 746.8 151C711.3 151 675.7 151 640 151C604.3 151 568.7 151 533.2 151C497.7 151 462.3 151 426.8 151C391.3 151 355.7 151 320 151C284.3 151 248.7 151 213.2 151C177.7 151 142.3 151 106.8 151C71.3 151 35.7 151 17.8 151L0 151Z" fill="#339a9c"></path>
<path d="M0 73L17.8 78C35.7 83 71.3 93 106.8 97.5C142.3 102 177.7 101 213.2 102C248.7 103 284.3 106 320 108.7C355.7 111.3 391.3 113.7 426.8 107.3C462.3 101 497.7 86 533.2 79C568.7 72 604.3 73 640 79.8C675.7 86.7 711.3 99.3 746.8 100.3C782.3 101.3 817.7 90.7 853.2 83.7C888.7 76.7 924.3 73.3 942.2 71.7L960 70L960 151L942.2 151C924.3 151 888.7 151 853.2 151C817.7 151 782.3 151 746.8 151C711.3 151 675.7 151 640 151C604.3 151 568.7 151 533.2 151C497.7 151 462.3 151 426.8 151C391.3 151 355.7 151 320 151C284.3 151 248.7 151 213.2 151C177.7 151 142.3 151 106.8 151C71.3 151 35.7 151 17.8 151L0 151Z" fill="#4b9ca7"></path>
<path d="M0 98L17.8 103.7C35.7 109.3 71.3 120.7 106.8 121.5C142.3 122.3 177.7 112.7 213.2 107.5C248.7 102.3 284.3 101.7 320 106.2C355.7 110.7 391.3 120.3 426.8 122.5C462.3 124.7 497.7 119.3 533.2 113C568.7 106.7 604.3 99.3 640 102C675.7 104.7 711.3 117.3 746.8 120.7C782.3 124 817.7 118 853.2 118.3C888.7 118.7 924.3 125.3 942.2 128.7L960 132L960 151L942.2 151C924.3 151 888.7 151 853.2 151C817.7 151 782.3 151 746.8 151C711.3 151 675.7 151 640 151C604.3 151 568.7 151 533.2 151C497.7 151 462.3 151 426.8 151C391.3 151 355.7 151 320 151C284.3 151 248.7 151 213.2 151C177.7 151 142.3 151 106.8 151C71.3 151 35.7 151 17.8 151L0 151Z" fill="#629fae"></path>
<path d="M0 139L17.8 136.5C35.7 134 71.3 129 106.8 129C142.3 129 177.7 134 213.2 133.3C248.7 132.7 284.3 126.3 320 124.8C355.7 123.3 391.3 126.7 426.8 128.7C462.3 130.7 497.7 131.3 533.2 128C568.7 124.7 604.3 117.3 640 114C675.7 110.7 711.3 111.3 746.8 111.7C782.3 112 817.7 112 853.2 113.5C888.7 115 924.3 118 942.2 119.5L960 121L960 151L942.2 151C924.3 151 888.7 151 853.2 151C817.7 151 782.3 151 746.8 151C711.3 151 675.7 151 640 151C604.3 151 568.7 151 533.2 151C497.7 151 462.3 151 426.8 151C391.3 151 355.7 151 320 151C284.3 151 248.7 151 213.2 151C177.7 151 142.3 151 106.8 151C71.3 151 35.7 151 17.8 151L0 151Z" fill="#77a1b2"></path></svg>