<svg
      id="visual"
      viewBox="0 0 960 150"
      width="960"
      height="150"
      xmlns="http://www.w3.org/2000/svg"
      xmlnsXlink="http://www.w3.org/1999/xlink"
      version="1.1"
    >
      <g id="wave1">
        <path
          d="M0 64L14.5 61C29 58 58 52 87.2 54.8C116.3 57.7 145.7 69.3 174.8 68.5C204 67.7 233 54.3 262 54.2C291 54 320 67 349 75.7C378 84.3 407 88.7 436.2 78.5C465.3 68.3 494.7 43.7 523.8 32.5C553 21.3 582 23.7 611 27.3C640 31 669 36 698 35.8C727 35.7 756 30.3 785.2 35.2C814.3 40 843.7 55 872.8 65.7C902 76.3 931 82.7 945.5 85.8L960 89L960 151L945.5 151C931 151 902 151 872.8 151C843.7 151 814.3 151 785.2 151C756 151 727 151 698 151C669 151 640 151 611 151C582 151 553 151 523.8 151C494.7 151 465.3 151 436.2 151C407 151 378 151 349 151C320 151 291 151 262 151C233 151 204 151 174.8 151C145.7 151 116.3 151 87.2 151C58 151 29 151 14.5 151L0 151Z"
          fill="#01937e"
        ></path>
        <path
          d="M0 108L14.5 99.3C29 90.7 58 73.3 87.2 68C116.3 62.7 145.7 69.3 174.8 67.8C204 66.3 233 56.7 262 52.3C291 48 320 49 349 53.7C378 58.3 407 66.7 436.2 73.8C465.3 81 494.7 87 523.8 83.5C553 80 582 67 611 60.2C640 53.3 669 52.7 698 57C727 61.3 756 70.7 785.2 74.7C814.3 78.7 843.7 77.3 872.8 70.7C902 64 931 52 945.5 46L960 40L960 151L945.5 151C931 151 902 151 872.8 151C843.7 151 814.3 151 785.2 151C756 151 727 151 698 151C669 151 640 151 611 151C582 151 553 151 523.8 151C494.7 151 465.3 151 436.2 151C407 151 378 151 349 151C320 151 291 151 262 151C233 151 204 151 174.8 151C145.7 151 116.3 151 87.2 151C58 151 29 151 14.5 151L0 151Z"
          fill="#19978f"
        ></path>
        <path
          d="M0 114L14.5 104.2C29 94.3 58 74.7 87.2 71.7C116.3 68.7 145.7 82.3 174.8 92C204 101.7 233 107.3 262 103C291 98.7 320 84.3 349 81.7C378 79 407 88 436.2 94.3C465.3 100.7 494.7 104.3 523.8 106.2C553 108 582 108 611 103C640 98 669 88 698 87.8C727 87.7 756 97.3 785.2 103.7C814.3 110 843.7 113 872.8 105.3C902 97.7 931 79.3 945.5 70.2L960 61L960 151L945.5 151C931 151 902 151 872.8 151C843.7 151 814.3 151 785.2 151C756 151 727 151 698 151C669 151 640 151 611 151C582 151 553 151 523.8 151C494.7 151 465.3 151 436.2 151C407 151 378 151 349 151C320 151 291 151 262 151C233 151 204 151 174.8 151C145.7 151 116.3 151 87.2 151C58 151 29 151 14.5 151L0 151Z"
          fill="#339a9c"
        ></path>
        <path
          d="M0 83L14.5 85.5C29 88 58 93 87.2 94C116.3 95 145.7 92 174.8 94.2C204 96.3 233 103.7 262 102.3C291 101 320 91 349 88.2C378 85.3 407 89.7 436.2 93.2C465.3 96.7 494.7 99.3 523.8 102.3C553 105.3 582 108.7 611 110.8C640 113 669 114 698 114.2C727 114.3 756 113.7 785.2 113.2C814.3 112.7 843.7 112.3 872.8 107.2C902 102 931 92 945.5 87L960 82L960 151L945.5 151C931 151 902 151 872.8 151C843.7 151 814.3 151 785.2 151C756 151 727 151 698 151C669 151 640 151 611 151C582 151 553 151 523.8 151C494.7 151 465.3 151 436.2 151C407 151 378 151 349 151C320 151 291 151 262 151C233 151 204 151 174.8 151C145.7 151 116.3 151 87.2 151C58 151 29 151 14.5 151L0 151Z"
          fill="#4b9ca7"
        ></path>
        <path
          d="M0 102L14.5 107.2C29 112.3 58 122.7 87.2 122.3C116.3 122 145.7 111 174.8 107.5C204 104 233 108 262 107C291 106 320 100 349 98.8C378 97.7 407 101.3 436.2 101.3C465.3 101.3 494.7 97.7 523.8 96.5C553 95.3 582 96.7 611 103C640 109.3 669 120.7 698 124.7C727 128.7 756 125.3 785.2 123.5C814.3 121.7 843.7 121.3 872.8 122.2C902 123 931 125 945.5 126L960 127L960 151L945.5 151C931 151 902 151 872.8 151C843.7 151 814.3 151 785.2 151C756 151 727 151 698 151C669 151 640 151 611 151C582 151 553 151 523.8 151C494.7 151 465.3 151 436.2 151C407 151 378 151 349 151C320 151 291 151 262 151C233 151 204 151 174.8 151C145.7 151 116.3 151 87.2 151C58 151 29 151 14.5 151L0 151Z"
          fill="#629fae"
        ></path>
        <path
          d="M0 132L14.5 131.3C29 130.7 58 129.3 87.2 130.2C116.3 131 145.7 134 174.8 134.8C204 135.7 233 134.3 262 134.8C291 135.3 320 137.7 349 134.5C378 131.3 407 122.7 436.2 120.2C465.3 117.7 494.7 121.3 523.8 125.5C553 129.7 582 134.3 611 135.8C640 137.3 669 135.7 698 133C727 130.3 756 126.7 785.2 124.8C814.3 123 843.7 123 872.8 122.2C902 121.3 931 119.7 945.5 118.8L960 118L960 151L945.5 151C931 151 902 151 872.8 151C843.7 151 814.3 151 785.2 151C756 151 727 151 698 151C669 151 640 151 611 151C582 151 553 151 523.8 151C494.7 151 465.3 151 436.2 151C407 151 378 151 349 151C320 151 291 151 262 151C233 151 204 151 174.8 151C145.7 151 116.3 151 87.2 151C58 151 29 151 14.5 151L0 151Z"
          fill="#77a1b2"
        ></path>
      </g>
      <g id="wave2" style="visibility: hidden">
        <path
          d="M0 72L12.3 69.3C24.7 66.7 49.3 61.3 74 59.2C98.7 57 123.3 58 148 60.7C172.7 63.3 197.3 67.7 221.8 71.5C246.3 75.3 270.7 78.7 295.2 73.3C319.7 68 344.3 54 369 46.7C393.7 39.3 418.3 38.7 443 44.5C467.7 50.3 492.3 62.7 517 66C541.7 69.3 566.3 63.7 591 65.2C615.7 66.7 640.3 75.3 664.8 75.8C689.3 76.3 713.7 68.7 738.2 67.5C762.7 66.3 787.3 71.7 812 71.5C836.7 71.3 861.3 65.7 886 56.8C910.7 48 935.3 36 947.7 30L960 24L960 151L947.7 151C935.3 151 910.7 151 886 151C861.3 151 836.7 151 812 151C787.3 151 762.7 151 738.2 151C713.7 151 689.3 151 664.8 151C640.3 151 615.7 151 591 151C566.3 151 541.7 151 517 151C492.3 151 467.7 151 443 151C418.3 151 393.7 151 369 151C344.3 151 319.7 151 295.2 151C270.7 151 246.3 151 221.8 151C197.3 151 172.7 151 148 151C123.3 151 98.7 151 74 151C49.3 151 24.7 151 12.3 151L0 151Z"
          fill="#01937e"
        ></path>
        <path
          d="M0 47L12.3 49.2C24.7 51.3 49.3 55.7 74 59C98.7 62.3 123.3 64.7 148 69.7C172.7 74.7 197.3 82.3 221.8 81C246.3 79.7 270.7 69.3 295.2 66.5C319.7 63.7 344.3 68.3 369 72C393.7 75.7 418.3 78.3 443 75.7C467.7 73 492.3 65 517 64.3C541.7 63.7 566.3 70.3 591 70.7C615.7 71 640.3 65 664.8 68C689.3 71 713.7 83 738.2 84.8C762.7 86.7 787.3 78.3 812 70.5C836.7 62.7 861.3 55.3 886 57.5C910.7 59.7 935.3 71.3 947.7 77.2L960 83L960 151L947.7 151C935.3 151 910.7 151 886 151C861.3 151 836.7 151 812 151C787.3 151 762.7 151 738.2 151C713.7 151 689.3 151 664.8 151C640.3 151 615.7 151 591 151C566.3 151 541.7 151 517 151C492.3 151 467.7 151 443 151C418.3 151 393.7 151 369 151C344.3 151 319.7 151 295.2 151C270.7 151 246.3 151 221.8 151C197.3 151 172.7 151 148 151C123.3 151 98.7 151 74 151C49.3 151 24.7 151 12.3 151L0 151Z"
          fill="#19978f"
        ></path>
        <path
          d="M0 72L12.3 69.7C24.7 67.3 49.3 62.7 74 64.8C98.7 67 123.3 76 148 78.2C172.7 80.3 197.3 75.7 221.8 72.2C246.3 68.7 270.7 66.3 295.2 69.8C319.7 73.3 344.3 82.7 369 86.2C393.7 89.7 418.3 87.3 443 82.7C467.7 78 492.3 71 517 71.8C541.7 72.7 566.3 81.3 591 85.7C615.7 90 640.3 90 664.8 90.5C689.3 91 713.7 92 738.2 90.5C762.7 89 787.3 85 812 86.2C836.7 87.3 861.3 93.7 886 97.5C910.7 101.3 935.3 102.7 947.7 103.3L960 104L960 151L947.7 151C935.3 151 910.7 151 886 151C861.3 151 836.7 151 812 151C787.3 151 762.7 151 738.2 151C713.7 151 689.3 151 664.8 151C640.3 151 615.7 151 591 151C566.3 151 541.7 151 517 151C492.3 151 467.7 151 443 151C418.3 151 393.7 151 369 151C344.3 151 319.7 151 295.2 151C270.7 151 246.3 151 221.8 151C197.3 151 172.7 151 148 151C123.3 151 98.7 151 74 151C49.3 151 24.7 151 12.3 151L0 151Z"
          fill="#339a9c"
        ></path>
        <path
          d="M0 78L12.3 82.7C24.7 87.3 49.3 96.7 74 102.2C98.7 107.7 123.3 109.3 148 109.7C172.7 110 197.3 109 221.8 108.7C246.3 108.3 270.7 108.7 295.2 107.3C319.7 106 344.3 103 369 102.7C393.7 102.3 418.3 104.7 443 102.2C467.7 99.7 492.3 92.3 517 91C541.7 89.7 566.3 94.3 591 99.2C615.7 104 640.3 109 664.8 107C689.3 105 713.7 96 738.2 91.8C762.7 87.7 787.3 88.3 812 89.3C836.7 90.3 861.3 91.7 886 93C910.7 94.3 935.3 95.7 947.7 96.3L960 97L960 151L947.7 151C935.3 151 910.7 151 886 151C861.3 151 836.7 151 812 151C787.3 151 762.7 151 738.2 151C713.7 151 689.3 151 664.8 151C640.3 151 615.7 151 591 151C566.3 151 541.7 151 517 151C492.3 151 467.7 151 443 151C418.3 151 393.7 151 369 151C344.3 151 319.7 151 295.2 151C270.7 151 246.3 151 221.8 151C197.3 151 172.7 151 148 151C123.3 151 98.7 151 74 151C49.3 151 24.7 151 12.3 151L0 151Z"
          fill="#4b9ca7"
        ></path>
        <path
          d="M0 103L12.3 105.8C24.7 108.7 49.3 114.3 74 114.5C98.7 114.7 123.3 109.3 148 110.7C172.7 112 197.3 120 221.8 119C246.3 118 270.7 108 295.2 107C319.7 106 344.3 114 369 114.5C393.7 115 418.3 108 443 104C467.7 100 492.3 99 517 99.3C541.7 99.7 566.3 101.3 591 105.3C615.7 109.3 640.3 115.7 664.8 115.8C689.3 116 713.7 110 738.2 107.2C762.7 104.3 787.3 104.7 812 106.3C836.7 108 861.3 111 886 114.8C910.7 118.7 935.3 123.3 947.7 125.7L960 128L960 151L947.7 151C935.3 151 910.7 151 886 151C861.3 151 836.7 151 812 151C787.3 151 762.7 151 738.2 151C713.7 151 689.3 151 664.8 151C640.3 151 615.7 151 591 151C566.3 151 541.7 151 517 151C492.3 151 467.7 151 443 151C418.3 151 393.7 151 369 151C344.3 151 319.7 151 295.2 151C270.7 151 246.3 151 221.8 151C197.3 151 172.7 151 148 151C123.3 151 98.7 151 74 151C49.3 151 24.7 151 12.3 151L0 151Z"
          fill="#629fae"
        ></path>
        <path
          d="M0 123L12.3 122.5C24.7 122 49.3 121 74 121.2C98.7 121.3 123.3 122.7 148 122.5C172.7 122.3 197.3 120.7 221.8 121.7C246.3 122.7 270.7 126.3 295.2 129.5C319.7 132.7 344.3 135.3 369 136.5C393.7 137.7 418.3 137.3 443 137.5C467.7 137.7 492.3 138.3 517 135C541.7 131.7 566.3 124.3 591 122.8C615.7 121.3 640.3 125.7 664.8 126.2C689.3 126.7 713.7 123.3 738.2 123.3C762.7 123.3 787.3 126.7 812 127.2C836.7 127.7 861.3 125.3 886 126.7C910.7 128 935.3 133 947.7 135.5L960 138L960 151L947.7 151C935.3 151 910.7 151 886 151C861.3 151 836.7 151 812 151C787.3 151 762.7 151 738.2 151C713.7 151 689.3 151 664.8 151C640.3 151 615.7 151 591 151C566.3 151 541.7 151 517 151C492.3 151 467.7 151 443 151C418.3 151 393.7 151 369 151C344.3 151 319.7 151 295.2 151C270.7 151 246.3 151 221.8 151C197.3 151 172.7 151 148 151C123.3 151 98.7 151 74 151C49.3 151 24.7 151 12.3 151L0 151Z"
          fill="#77a1b2"
        ></path>
      </g>
    </svg>