<?xml version="1.0" encoding="UTF-8"?>
<svg width="752pt" height="752pt" version="1.1" viewBox="0 0 752 752" xmlns="http://www.w3.org/2000/svg">
 <g fill="#facc14">
  <path d="m376 0c-49.375 0-98.27 9.7266-143.89 28.621-45.621 18.895-87.07 46.59-121.98 81.508-34.918 34.914-62.613 76.363-81.508 121.98-18.895 45.617-28.621 94.512-28.621 143.89 0 99.723 39.617 195.36 110.13 265.87 70.516 70.516 166.15 110.13 265.87 110.13 99.723 0 195.36-39.617 265.87-110.13 70.512-70.512 110.13-166.15 110.13-265.87 0-99.719-39.613-195.36-110.12-265.87-70.516-70.516-166.15-110.13-265.88-110.13zm0 42.465c43.316 0 86.207 8.625 126.23 25.387 40.02 16.762 76.379 41.332 107.01 72.305s54.926 67.738 71.5 108.21c16.578 40.465 25.105 83.84 25.105 127.64 0 88.461-34.75 173.3-96.605 235.84-61.859 62.551-145.75 97.691-233.23 97.691-43.312 0-86.207-8.625-126.22-25.387-40.02-16.762-76.383-41.332-107.01-72.301-30.629-30.973-54.926-67.742-71.504-108.21-16.574-40.469-25.105-83.84-25.105-127.64s8.5312-87.172 25.105-127.64c16.578-40.469 40.871-77.238 71.5-108.21 30.629-30.969 66.992-55.539 107.01-72.301 40.02-16.762 82.914-25.387 126.23-25.387z"/>
  <path d="m580.23 463.32c-0.73828-6.6602-5.1797-12.578-14.059-12.578-21.461-0.73828-42.918-1.4805-63.637-2.2188 1.4805-2.9609 3.6992-5.918 5.1797-9.6211 1.4805-4.4414 0-10.359 0-14.801-1.4805-36.258-2.9609-72.516-4.4414-108.78-0.73828-11.098-12.578-18.5-22.199-12.578-6.6602 3.6992-13.32 8.1406-20.719 11.84 1.4805-7.3984 3.6992-15.539 0.73828-22.938-7.3984-19.238-15.539-38.477-22.938-57.719-3.6992-9.6211-17.02-16.281-24.418-6.6602-29.598 34.777-58.457 70.297-88.055 105.07-4.4414 5.1797-8.1406 10.359-12.578 15.539-4.4414 5.1797-5.1797 11.84-2.2188 17.758s5.918 11.84 8.8789 17.758c-5.918-4.4414-12.578-8.1406-18.5-12.578-5.918-4.4414-12.578-8.8789-19.238-12.578-7.3984-3.6992-18.5-2.2188-26.641-2.2188-10.359 0-21.461-0.73828-31.82 0-3.6992 0-7.3984 1.4805-9.6211 4.4414-7.3984 7.3984-13.32 16.281-19.238 24.418-5.918 7.3984-11.84 15.539-18.5 22.938-2.9609 3.6992-4.4414 7.3984-4.4414 11.84 0.73828 7.3984 7.3984 13.32 14.801 13.32h59.199c14.801 22.938 28.859 46.617 43.66 69.559 3.6992 5.918 7.3984 11.84 11.098 17.758 8.8789 14.801 30.34 2.9609 42.18-0.73828 18.5-5.918 37.738-11.098 56.238-17.02 8.8789 5.1797 17.758 10.359 26.641 16.281 6.6602 4.4414 17.758 14.059 26.641 10.359 39.219-16.281 79.176-33.297 118.39-49.578 6.6523-2.9609 10.352-9.6211 9.6133-16.281zm-142.07-34.777c-1.4805-5.1797-5.918-9.6211-11.098-10.359-5.1797-1.4805-12.578 1.4805-15.539 6.6602-1.4805 3.6992-2.9609 7.3984-4.4414 10.359-1.4805 3.6992-2.9609 7.3984-5.1797 11.098-2.9609 7.3984-6.6602 14.801-9.6211 22.938-0.74219 0.74219-1.4805 2.2227-1.4805 2.9648 0 0.73828-0.73828 1.4805-0.73828 2.2188h-0.73828c-18.5 5.918-37 11.098-55.496 17.02 7.3984-27.379 14.801-54.758 22.199-82.875 39.219-22.938 78.438-45.879 117.66-68.816 1.4805 30.34 2.9609 60.676 3.6992 91.016-11.84 21.461-23.68 42.18-35.52 63.637-7.3984-4.4414-15.539-8.8789-22.938-14.059 5.1797-11.098 9.6211-22.199 14.801-33.297 0.73828-2.2188 2.2188-4.4414 2.9609-6.6602 1.4727-3.7031 2.2109-8.1445 1.4727-11.844zm48.098 48.098c4.4414 0 8.8789 0 13.32 0.73828-5.918 2.2188-11.84 5.1797-17.02 7.3984 0.73828-2.957 2.2188-5.1758 3.6992-8.1367zm-95.457-122.84c-14.059 8.1406-27.379 16.281-41.438 24.418-2.9609-5.918-5.918-11.84-9.6211-18.5 25.898-31.078 52.539-62.898 78.438-93.977 4.4414 11.098 8.8789 22.938 13.32 34.039-1.4805 11.098-3.6992 22.199-5.1797 33.297-11.102 6.6641-23.68 14.062-35.52 20.723zm-174.63 49.578c2.2188-2.2188 3.6992-5.1797 5.918-7.3984 1.4805 2.2188 2.9609 5.1797 4.4414 7.3984h-10.359zm34.039-18.496h19.238c17.758 11.84 35.52 23.68 52.539 35.52-5.1797 18.5-9.6211 37-14.801 55.496-19.238-29.602-37.738-60.68-56.977-91.016z"/>
 </g>
</svg>
