<svg id="visual" viewBox="0 0 960 150" width="960" height="150" xmlns="http://www.w3.org/2000/svg" xmlns:xlink="http://www.w3.org/1999/xlink" version="1.1"><path d="M0 42L17.8 43.5C35.7 45 71.3 48 106.8 51.8C142.3 55.7 177.7 60.3 213.2 59.5C248.7 58.7 284.3 52.3 320 48.3C355.7 44.3 391.3 42.7 426.8 45.3C462.3 48 497.7 55 533.2 57.3C568.7 59.7 604.3 57.3 640 53.8C675.7 50.3 711.3 45.7 746.8 45.8C782.3 46 817.7 51 853.2 53.5C888.7 56 924.3 56 942.2 56L960 56L960 151L942.2 151C924.3 151 888.7 151 853.2 151C817.7 151 782.3 151 746.8 151C711.3 151 675.7 151 640 151C604.3 151 568.7 151 533.2 151C497.7 151 462.3 151 426.8 151C391.3 151 355.7 151 320 151C284.3 151 248.7 151 213.2 151C177.7 151 142.3 151 106.8 151C71.3 151 35.7 151 17.8 151L0 151Z" fill="#475569"></path><path d="M0 90L17.8 86.3C35.7 82.7 71.3 75.3 106.8 71.8C142.3 68.3 177.7 68.7 213.2 70.8C248.7 73 284.3 77 320 80.8C355.7 84.7 391.3 88.3 426.8 89.3C462.3 90.3 497.7 88.7 533.2 87.7C568.7 86.7 604.3 86.3 640 85.3C675.7 84.3 711.3 82.7 746.8 82.3C782.3 82 817.7 83 853.2 80.8C888.7 78.7 924.3 73.3 942.2 70.7L960 68L960 151L942.2 151C924.3 151 888.7 151 853.2 151C817.7 151 782.3 151 746.8 151C711.3 151 675.7 151 640 151C604.3 151 568.7 151 533.2 151C497.7 151 462.3 151 426.8 151C391.3 151 355.7 151 320 151C284.3 151 248.7 151 213.2 151C177.7 151 142.3 151 106.8 151C71.3 151 35.7 151 17.8 151L0 151Z" fill="#323e51"></path><path d="M0 109L17.8 109.3C35.7 109.7 71.3 110.3 106.8 110.2C142.3 110 177.7 109 213.2 110.8C248.7 112.7 284.3 117.3 320 119.3C355.7 121.3 391.3 120.7 426.8 119.3C462.3 118 497.7 116 533.2 115.2C568.7 114.3 604.3 114.7 640 113.8C675.7 113 711.3 111 746.8 112C782.3 113 817.7 117 853.2 117C888.7 117 924.3 113 942.2 111L960 109L960 151L942.2 151C924.3 151 888.7 151 853.2 151C817.7 151 782.3 151 746.8 151C711.3 151 675.7 151 640 151C604.3 151 568.7 151 533.2 151C497.7 151 462.3 151 426.8 151C391.3 151 355.7 151 320 151C284.3 151 248.7 151 213.2 151C177.7 151 142.3 151 106.8 151C71.3 151 35.7 151 17.8 151L0 151Z" fill="#1e293b"></path></svg>