<svg id="visual" viewBox="0 0 960 150" width="960" height="150" xmlns="http://www.w3.org/2000/svg" xmlns:xlink="http://www.w3.org/1999/xlink" version="1.1"><path d="M0 44L26.7 45.5C53.3 47 106.7 50 160 50.7C213.3 51.3 266.7 49.7 320 49.5C373.3 49.3 426.7 50.7 480 48.2C533.3 45.7 586.7 39.3 640 34.3C693.3 29.3 746.7 25.7 800 33.3C853.3 41 906.7 60 933.3 69.5L960 79L960 151L933.3 151C906.7 151 853.3 151 800 151C746.7 151 693.3 151 640 151C586.7 151 533.3 151 480 151C426.7 151 373.3 151 320 151C266.7 151 213.3 151 160 151C106.7 151 53.3 151 26.7 151L0 151Z" fill="#77a1b2"></path><path d="M0 49L26.7 45.8C53.3 42.7 106.7 36.3 160 35.8C213.3 35.3 266.7 40.7 320 52.5C373.3 64.3 426.7 82.7 480 87.5C533.3 92.3 586.7 83.7 640 80C693.3 76.3 746.7 77.7 800 76.7C853.3 75.7 906.7 72.3 933.3 70.7L960 69L960 151L933.3 151C906.7 151 853.3 151 800 151C746.7 151 693.3 151 640 151C586.7 151 533.3 151 480 151C426.7 151 373.3 151 320 151C266.7 151 213.3 151 160 151C106.7 151 53.3 151 26.7 151L0 151Z" fill="#539daa"></path><path d="M0 84L26.7 92C53.3 100 106.7 116 160 118.5C213.3 121 266.7 110 320 110.5C373.3 111 426.7 123 480 127.2C533.3 131.3 586.7 127.7 640 117.7C693.3 107.7 746.7 91.3 800 89.7C853.3 88 906.7 101 933.3 107.5L960 114L960 151L933.3 151C906.7 151 853.3 151 800 151C746.7 151 693.3 151 640 151C586.7 151 533.3 151 480 151C426.7 151 373.3 151 320 151C266.7 151 213.3 151 160 151C106.7 151 53.3 151 26.7 151L0 151Z" fill="#2a9998"></path><path d="M0 138L26.7 138.3C53.3 138.7 106.7 139.3 160 135C213.3 130.7 266.7 121.3 320 116.2C373.3 111 426.7 110 480 115.2C533.3 120.3 586.7 131.7 640 138C693.3 144.3 746.7 145.7 800 143.5C853.3 141.3 906.7 135.7 933.3 132.8L960 130L960 151L933.3 151C906.7 151 853.3 151 800 151C746.7 151 693.3 151 640 151C586.7 151 533.3 151 480 151C426.7 151 373.3 151 320 151C266.7 151 213.3 151 160 151C106.7 151 53.3 151 26.7 151L0 151Z" fill="#01937e"></path></svg>