<svg id="visual" viewBox="0 0 960 150" width="960" height="150" xmlns="http://www.w3.org/2000/svg" xmlns:xlink="http://www.w3.org/1999/xlink" version="1.1"><path d="M0 51L17.8 51.7C35.7 52.3 71.3 53.7 106.8 52.8C142.3 52 177.7 49 213.2 50.8C248.7 52.7 284.3 59.3 320 60.3C355.7 61.3 391.3 56.7 426.8 55C462.3 53.3 497.7 54.7 533.2 51.7C568.7 48.7 604.3 41.3 640 38.2C675.7 35 711.3 36 746.8 38.8C782.3 41.7 817.7 46.3 853.2 52.2C888.7 58 924.3 65 942.2 68.5L960 72L960 151L942.2 151C924.3 151 888.7 151 853.2 151C817.7 151 782.3 151 746.8 151C711.3 151 675.7 151 640 151C604.3 151 568.7 151 533.2 151C497.7 151 462.3 151 426.8 151C391.3 151 355.7 151 320 151C284.3 151 248.7 151 213.2 151C177.7 151 142.3 151 106.8 151C71.3 151 35.7 151 17.8 151L0 151Z" fill="#1e293b"></path><path d="M0 97L17.8 95.7C35.7 94.3 71.3 91.7 106.8 90.7C142.3 89.7 177.7 90.3 213.2 92C248.7 93.7 284.3 96.3 320 93.2C355.7 90 391.3 81 426.8 77.7C462.3 74.3 497.7 76.7 533.2 80.2C568.7 83.7 604.3 88.3 640 86C675.7 83.7 711.3 74.3 746.8 72.3C782.3 70.3 817.7 75.7 853.2 76.2C888.7 76.7 924.3 72.3 942.2 70.2L960 68L960 151L942.2 151C924.3 151 888.7 151 853.2 151C817.7 151 782.3 151 746.8 151C711.3 151 675.7 151 640 151C604.3 151 568.7 151 533.2 151C497.7 151 462.3 151 426.8 151C391.3 151 355.7 151 320 151C284.3 151 248.7 151 213.2 151C177.7 151 142.3 151 106.8 151C71.3 151 35.7 151 17.8 151L0 151Z" fill="#323e51"></path><path d="M0 102L17.8 103.2C35.7 104.3 71.3 106.7 106.8 108.8C142.3 111 177.7 113 213.2 114.8C248.7 116.7 284.3 118.3 320 120.2C355.7 122 391.3 124 426.8 122.5C462.3 121 497.7 116 533.2 113.7C568.7 111.3 604.3 111.7 640 113.8C675.7 116 711.3 120 746.8 122.2C782.3 124.3 817.7 124.7 853.2 120.8C888.7 117 924.3 109 942.2 105L960 101L960 151L942.2 151C924.3 151 888.7 151 853.2 151C817.7 151 782.3 151 746.8 151C711.3 151 675.7 151 640 151C604.3 151 568.7 151 533.2 151C497.7 151 462.3 151 426.8 151C391.3 151 355.7 151 320 151C284.3 151 248.7 151 213.2 151C177.7 151 142.3 151 106.8 151C71.3 151 35.7 151 17.8 151L0 151Z" fill="#475569"></path></svg>