<svg id="visual" viewBox="0 0 960 150" width="960" height="150" xmlns="http://www.w3.org/2000/svg" xmlns:xlink="http://www.w3.org/1999/xlink" version="1.1"><path d="M0 76L26.7 67.5C53.3 59 106.7 42 160 44.8C213.3 47.7 266.7 70.3 320 71.3C373.3 72.3 426.7 51.7 480 42.2C533.3 32.7 586.7 34.3 640 35.7C693.3 37 746.7 38 800 35.8C853.3 33.7 906.7 28.3 933.3 25.7L960 23L960 151L933.3 151C906.7 151 853.3 151 800 151C746.7 151 693.3 151 640 151C586.7 151 533.3 151 480 151C426.7 151 373.3 151 320 151C266.7 151 213.3 151 160 151C106.7 151 53.3 151 26.7 151L0 151Z" fill="#01937e"></path><path d="M0 71L26.7 69.8C53.3 68.7 106.7 66.3 160 73.3C213.3 80.3 266.7 96.7 320 100C373.3 103.3 426.7 93.7 480 88.5C533.3 83.3 586.7 82.7 640 79.2C693.3 75.7 746.7 69.3 800 65.8C853.3 62.3 906.7 61.7 933.3 61.3L960 61L960 151L933.3 151C906.7 151 853.3 151 800 151C746.7 151 693.3 151 640 151C586.7 151 533.3 151 480 151C426.7 151 373.3 151 320 151C266.7 151 213.3 151 160 151C106.7 151 53.3 151 26.7 151L0 151Z" fill="#3f9ba2"></path><path d="M0 123L26.7 120.5C53.3 118 106.7 113 160 109C213.3 105 266.7 102 320 103.3C373.3 104.7 426.7 110.3 480 111C533.3 111.7 586.7 107.3 640 103C693.3 98.7 746.7 94.3 800 94.8C853.3 95.3 906.7 100.7 933.3 103.3L960 106L960 151L933.3 151C906.7 151 853.3 151 800 151C746.7 151 693.3 151 640 151C586.7 151 533.3 151 480 151C426.7 151 373.3 151 320 151C266.7 151 213.3 151 160 151C106.7 151 53.3 151 26.7 151L0 151Z" fill="#77a1b2"></path></svg>