<svg width="24px" height="24px" viewBox="0 0 24 24" id="c89cf090-0e7d-426f-9971-6ebcb30a96f7" data-name="Livello 1" xmlns="http://www.w3.org/2000/svg"><title>prime</title><g id="b454ce3c-30f4-4856-be86-7f37e0bf5d4b" data-name="database"><path d="M12,1C7,1,3,2.34,3,4V6c0,1.66,4,3,9,3s9-1.34,9-3V4C21,2.34,17,1,12,1Z"/><path d="M12,11C7,11,3,9.66,3,8v5c0,1.66,4,3,9,3s9-1.34,9-3V8C21,9.66,17,11,12,11Z"/><path d="M12,18c-5,0-9-1.34-9-3v5c0,1.66,4,3,9,3s9-1.34,9-3V15C21,16.66,17,18,12,18Z"/></g></svg>